<?xml version="1.0" standalone="no"?><!DOCTYPE svg PUBLIC "-//W3C//DTD SVG 1.1//EN" "http://www.w3.org/Graphics/SVG/1.1/DTD/svg11.dtd"><svg t="1656063738720" class="icon" viewBox="0 0 1024 1024" version="1.1" xmlns="http://www.w3.org/2000/svg" p-id="12066" xmlns:xlink="http://www.w3.org/1999/xlink" width="200" height="200"><defs><style type="text/css">@font-face { font-family: feedback-iconfont; src: url("//at.alicdn.com/t/font_1031158_u69w8yhxdu.woff2?t=1630033759944") format("woff2"), url("//at.alicdn.com/t/font_1031158_u69w8yhxdu.woff?t=1630033759944") format("woff"), url("//at.alicdn.com/t/font_1031158_u69w8yhxdu.ttf?t=1630033759944") format("truetype"); }
</style></defs><path d="M720 288m-154.666667 0a154.666667 154.666667 0 1 0 309.333334 0 154.666667 154.666667 0 1 0-309.333334 0Z" fill="#FF9FA2" opacity=".5" p-id="12067"></path><path d="M341.333333 458.666667h-128A117.546667 117.546667 0 0 1 96 341.333333v-128c0-64.64 52.693333-117.333333 117.333333-117.333333h128c64.64 0 117.333333 52.693333 117.333334 117.333333v128c0 64.64-52.693333 117.333333-117.333334 117.333334z m-128-298.666667A53.333333 53.333333 0 0 0 160 213.333333v128a53.333333 53.333333 0 0 0 53.333333 53.333334h128a53.333333 53.333333 0 0 0 53.333334-53.333334v-128A53.333333 53.333333 0 0 0 341.333333 160h-128zM341.333333 928h-128A117.546667 117.546667 0 0 1 96 810.666667v-128c0-64.64 52.693333-117.333333 117.333333-117.333334h128c64.64 0 117.333333 52.693333 117.333334 117.333334v128c0 64.64-52.693333 117.333333-117.333334 117.333333z m-128-298.666667A53.333333 53.333333 0 0 0 160 682.666667v128a53.333333 53.333333 0 0 0 53.333333 53.333333h128a53.333333 53.333333 0 0 0 53.333334-53.333333v-128a53.333333 53.333333 0 0 0-53.333334-53.333334h-128zM810.666667 458.666667h-128a117.546667 117.546667 0 0 1-117.333334-117.333334v-128c0-64.64 52.693333-117.333333 117.333334-117.333333h69.333333c17.706667 0 32 14.293333 32 32s-14.293333 32-32 32H682.666667a53.333333 53.333333 0 0 0-53.333334 53.333333v128a53.333333 53.333333 0 0 0 53.333334 53.333334h128a53.333333 53.333333 0 0 0 53.333333-53.333334v-48c0-17.706667 14.293333-32 32-32s32 14.293333 32 32V341.333333c0 64.64-52.693333 117.333333-117.333333 117.333334zM810.666667 928h-128a117.546667 117.546667 0 0 1-117.333334-117.333333v-128c0-64.64 52.693333-117.333333 117.333334-117.333334h128c64.64 0 117.333333 52.693333 117.333333 117.333334v128c0 64.64-52.693333 117.333333-117.333333 117.333333z m-128-298.666667a53.333333 53.333333 0 0 0-53.333334 53.333334v128a53.333333 53.333333 0 0 0 53.333334 53.333333h128a53.333333 53.333333 0 0 0 53.333333-53.333333v-128a53.333333 53.333333 0 0 0-53.333333-53.333334h-128zM874.666667 197.333333c-8.106667 0-16.426667-3.2-22.613334-9.386666l-5.333333-5.333334a31.786667 31.786667 0 0 1 0-45.226666 31.786667 31.786667 0 0 1 45.226667 0l5.333333 5.333333c12.586667 12.586667 12.586667 32.853333 0 45.226667-6.186667 6.186667-14.506667 9.386667-22.613333 9.386666z" p-id="12068"></path></svg>